<svg xmlns="http://www.w3.org/2000/svg" width="1200" height="220" viewBox="0 0 1200 220" fill="none">
  <defs>
    <linearGradient id="fbg" x1="0" y1="0" x2="1200" y2="220" gradientUnits="userSpaceOnUse">
      <stop offset="0%" stop-color="#03060C"/>
      <stop offset="50%" stop-color="#071525"/>
      <stop offset="100%" stop-color="#03060C"/>
    </linearGradient>
    <linearGradient id="neon" x1="0" y1="0" x2="1200" y2="0" gradientUnits="userSpaceOnUse">
      <stop offset="0%" stop-color="#00F0FF" stop-opacity="0"/>
      <stop offset="50%" stop-color="#39FF14"/>
      <stop offset="100%" stop-color="#00F0FF" stop-opacity="0"/>
    </linearGradient>
    <pattern id="grid" width="28" height="28" patternUnits="userSpaceOnUse">
      <path d="M28 0 H0 V28" fill="none" stroke="#00F0FF" stroke-opacity="0.06" stroke-width="1"/>
    </pattern>
  </defs>

  <rect width="1200" height="220" fill="url(#fbg)"/>
  <rect width="1200" height="220" fill="url(#grid)"/>
  <rect y="0" width="1200" height="2" fill="url(#neon)"/>

  <g transform="translate(920,40)">
    <path fill="#071525" stroke="#00F0FF" stroke-width="2"
      d="M36 90 C14 90 6 68 18 54 C8 34 30 18 52 26 C62 8 92 6 108 24 C126 14 152 24 156 46 C178 48 188 70 172 88 C182 106 156 116 132 108 C116 122 74 120 56 104 C44 112 36 100 36 90 Z"/>
    <text x="96" y="78" text-anchor="middle" fill="#39FF14" font-family="Consolas, monospace" font-size="22" font-weight="700">&lt;/&gt;</text>
    <g transform="translate(150,95)">
      <rect width="40" height="48" rx="4" fill="#050A12" stroke="#39FF14" stroke-width="1.5"/>
      <rect x="6" y="8" width="28" height="7" rx="1" stroke="#00F0FF" stroke-width="0.8" fill="#0A1524"/>
      <rect x="6" y="20" width="28" height="7" rx="1" stroke="#39FF14" stroke-width="0.8" fill="#0A1524"/>
      <rect x="6" y="32" width="28" height="7" rx="1" stroke="#00F0FF" stroke-width="0.8" fill="#0A1524"/>
    </g>
  </g>

  <text x="600" y="90" text-anchor="middle" fill="#FFFFFF" font-family="Arial, Helvetica, sans-serif" font-size="22" font-weight="700">Made with love by Chetan Selukar</text>
  <text x="600" y="125" text-anchor="middle" fill="#8BE9FF" font-family="Arial, Helvetica, sans-serif" font-size="15">Building Secure, Cloud-Ready Enterprise Solutions</text>
  <text x="600" y="165" text-anchor="middle" fill="#39FF14" font-family="Arial, Helvetica, sans-serif" font-size="13" letter-spacing="1">.NET Core | Angular | Azure | CI/CD</text>

  <g stroke="#00F0FF" stroke-width="2" fill="none" opacity="0.7">
    <path d="M30 50 V30 H50"/>
    <path d="M1150 30 H1170 V50"/>
    <path d="M30 170 V190 H50"/>
    <path d="M1150 190 H1170 V170"/>
  </g>
</svg>
